<?xml version="1.0" encoding="UTF-8"?>
<!DOCTYPE svg PUBLIC "-//W3C//DTD SVG 1.1//EN" "http://www.w3.org/Graphics/SVG/1.1/DTD/svg11.dtd">
<svg xmlns="http://www.w3.org/2000/svg" version="1.1" width="512px" height="512px" style="shape-rendering:geometricPrecision; text-rendering:geometricPrecision; image-rendering:optimizeQuality; fill-rule:evenodd; clip-rule:evenodd" xmlns:xlink="http://www.w3.org/1999/xlink">
<g><path style="opacity:0.999" fill="#5d535f" d="M 233.5,-0.5 C 243.167,-0.5 252.833,-0.5 262.5,-0.5C 264.961,0.531006 267.627,1.19767 270.5,1.5C 287.631,6.65462 302.131,15.988 314,29.5C 332.638,52.0963 346.638,77.4296 356,105.5C 377.022,170.586 384.189,237.253 377.5,305.5C 377.167,305.5 376.833,305.5 376.5,305.5C 357.423,304.091 344.923,312.424 339,330.5C 336.494,351.473 345.328,364.806 365.5,370.5C 361.105,390.017 355.105,409.017 347.5,427.5C 347.167,427.5 346.833,427.5 346.5,427.5C 301.202,428.393 258.535,418.393 218.5,397.5C 209.839,403.923 200.506,405.09 190.5,401C 181.894,393.675 179.06,384.508 182,373.5C 149.536,347.706 124.536,316.039 107,278.5C 104.18,295.327 95.0129,300.16 79.5,293C 71.2216,283.966 71.5549,275.3 80.5,267C 88.0224,262.002 95.189,262.502 102,268.5C 72.0378,188.22 78.2044,111.22 120.5,37.5C 155.198,16.0452 192.864,3.37854 233.5,-0.5 Z"/></g>
<g><path style="opacity:0.733" fill="#c3a962" d="M 262.5,-0.5 C 267.5,-0.5 272.5,-0.5 277.5,-0.5C 277.5,-0.166667 277.5,0.166667 277.5,0.5C 274.941,0.198448 272.607,0.531782 270.5,1.5C 267.627,1.19767 264.961,0.531006 262.5,-0.5 Z"/></g>
<g><path style="opacity:1" fill="#fedb64" d="M 270.5,1.5 C 272.607,0.531782 274.941,0.198448 277.5,0.5C 367.819,10.2195 435.652,54.2195 481,132.5C 497.855,164.278 508.022,197.945 511.5,233.5C 511.5,248.167 511.5,262.833 511.5,277.5C 507.664,318.675 494.664,356.675 472.5,391.5C 462.442,396.028 452.442,400.861 442.5,406C 412.185,419.229 380.518,426.396 347.5,427.5C 355.105,409.017 361.105,390.017 365.5,370.5C 365.5,369.833 365.833,369.5 366.5,369.5C 385.31,371.991 397.477,363.991 403,345.5C 405.54,324.914 397.04,311.58 377.5,305.5C 384.189,237.253 377.022,170.586 356,105.5C 346.638,77.4296 332.638,52.0963 314,29.5C 302.131,15.988 287.631,6.65462 270.5,1.5 Z"/></g>
<g><path style="opacity:1" fill="#4b3f4e" d="M 120.5,37.5 C 78.2044,111.22 72.0378,188.22 102,268.5C 95.189,262.502 88.0224,262.002 80.5,267C 71.5549,275.3 71.2216,283.966 79.5,293C 95.0129,300.16 104.18,295.327 107,278.5C 124.536,316.039 149.536,347.706 182,373.5C 179.06,384.508 181.894,393.675 190.5,401C 200.506,405.09 209.839,403.923 218.5,397.5C 258.535,418.393 301.202,428.393 346.5,427.5C 335.826,455.003 319.159,478.17 296.5,497C 288.249,502.792 279.249,506.959 269.5,509.5C 266.933,509.721 264.599,510.388 262.5,511.5C 252.833,511.5 243.167,511.5 233.5,511.5C 133.195,499.018 61.6947,447.018 19,355.5C 8.70332,330.313 2.20332,304.313 -0.5,277.5C -0.5,262.833 -0.5,248.167 -0.5,233.5C 8.84193,148.777 49.1753,83.4434 120.5,37.5 Z"/></g>
<g><path style="opacity:1" fill="#6e6470" d="M 142.5,107.5 C 169.053,104.423 184.719,115.923 189.5,142C 186.18,172.316 169.513,184.65 139.5,179C 118.289,168.734 111.122,152.234 118,129.5C 123.403,119.055 131.57,111.721 142.5,107.5 Z"/></g>
<g><path style="opacity:1" fill="#6e6470" d="M 300.5,123.5 C 315.325,122.824 322.158,129.824 321,144.5C 314.371,157.571 305.037,159.905 293,151.5C 285.28,139.306 287.78,129.973 300.5,123.5 Z"/></g>
<g><path style="opacity:1" fill="#ffef81" d="M 408.5,206.5 C 413.334,205.59 417.334,206.923 420.5,210.5C 424.846,206.141 429.679,205.474 435,208.5C 437.585,213.847 436.751,218.514 432.5,222.5C 438.103,226.724 438.77,231.557 434.5,237C 429.236,239.463 424.569,238.629 420.5,234.5C 415.296,239.799 410.13,239.799 405,234.5C 403.744,229.771 404.911,225.771 408.5,222.5C 403.236,217.057 403.236,211.724 408.5,206.5 Z"/></g>
<g><path style="opacity:1" fill="#6e6470" d="M 202.5,239.5 C 207.635,238.426 211.468,240.093 214,244.5C 214.499,248.152 214.665,251.818 214.5,255.5C 219.808,254.743 224.641,255.743 229,258.5C 231.446,263.324 230.613,267.491 226.5,271C 222.605,272.266 218.605,272.766 214.5,272.5C 216.641,281.244 213.474,286.577 205,288.5C 202.497,288.01 200.497,286.677 199,284.5C 197.734,280.605 197.234,276.605 197.5,272.5C 191.348,273.592 186.182,271.925 182,267.5C 180.902,263.495 181.735,259.995 184.5,257C 188.7,255.633 193.033,255.133 197.5,255.5C 197.335,251.818 197.501,248.152 198,244.5C 199.059,242.341 200.559,240.674 202.5,239.5 Z"/></g>
<g><path style="opacity:1" fill="#6f6570" d="M 376.5,305.5 C 374.465,327.042 371.132,348.375 366.5,369.5C 365.833,369.5 365.5,369.833 365.5,370.5C 345.328,364.806 336.494,351.473 339,330.5C 344.923,312.424 357.423,304.091 376.5,305.5 Z"/></g>
<g><path style="opacity:1" fill="#feef81" d="M 376.5,305.5 C 376.833,305.5 377.167,305.5 377.5,305.5C 397.04,311.58 405.54,324.914 403,345.5C 397.477,363.991 385.31,371.991 366.5,369.5C 371.132,348.375 374.465,327.042 376.5,305.5 Z"/></g>
<g><path style="opacity:1" fill="#fcc650" d="M 472.5,391.5 C 426.988,462.451 361.988,502.118 277.5,510.5C 274.615,510.806 271.948,510.473 269.5,509.5C 279.249,506.959 288.249,502.792 296.5,497C 319.159,478.17 335.826,455.003 346.5,427.5C 346.833,427.5 347.167,427.5 347.5,427.5C 380.518,426.396 412.185,419.229 442.5,406C 452.442,400.861 462.442,396.028 472.5,391.5 Z"/></g>
<g><path style="opacity:0.973" fill="#cda856" d="M 269.5,509.5 C 271.948,510.473 274.615,510.806 277.5,510.5C 277.5,510.833 277.5,511.167 277.5,511.5C 272.5,511.5 267.5,511.5 262.5,511.5C 264.599,510.388 266.933,509.721 269.5,509.5 Z"/></g>
</svg>
