<?xml version="1.0" encoding="UTF-8"?>
<!DOCTYPE svg PUBLIC "-//W3C//DTD SVG 1.1//EN" "http://www.w3.org/Graphics/SVG/1.1/DTD/svg11.dtd">
<svg xmlns="http://www.w3.org/2000/svg" version="1.1" width="512px" height="512px" style="shape-rendering:geometricPrecision; text-rendering:geometricPrecision; image-rendering:optimizeQuality; fill-rule:evenodd; clip-rule:evenodd" xmlns:xlink="http://www.w3.org/1999/xlink">
<g><path style="opacity:0.999" fill="#fedb64" d="M 233.5,-0.5 C 241.833,-0.5 250.167,-0.5 258.5,-0.5C 259.29,0.40128 260.29,1.06795 261.5,1.5C 320.352,31.809 362.852,77.4756 389,138.5C 398.239,160.383 404.739,183.05 408.5,206.5C 410.486,217.071 411.819,227.738 412.5,238.5C 413.461,269.597 410.461,300.264 403.5,330.5C 400.337,340.792 397.004,351.125 393.5,361.5C 384.521,384.46 373.188,406.126 359.5,426.5C 357.727,429.06 355.727,431.393 353.5,433.5C 352.761,433.369 352.094,433.536 351.5,434C 348.813,437.683 345.813,441.017 342.5,444C 331.743,443.718 321.076,442.385 310.5,440C 280.915,430.582 251.915,419.582 223.5,407C 195.841,386.68 170.008,364.18 146,339.5C 130.243,320.999 117.243,300.665 107,278.5C 105.274,293.559 97.107,299.059 82.5,295C 71.3974,286.392 70.7307,277.058 80.5,267C 88.0224,262.002 95.189,262.502 102,268.5C 72.13,188.252 78.2967,111.252 120.5,37.5C 155.198,16.0452 192.864,3.37854 233.5,-0.5 Z"/></g>
<g><path style="opacity:0.504" fill="#928061" d="M 258.5,-0.5 C 264.833,-0.5 271.167,-0.5 277.5,-0.5C 277.5,-0.166667 277.5,0.166667 277.5,0.5C 271.974,0.178589 266.64,0.511923 261.5,1.5C 260.29,1.06795 259.29,0.40128 258.5,-0.5 Z"/></g>
<g><path style="opacity:1" fill="#5e5360" d="M 261.5,1.5 C 266.64,0.511923 271.974,0.178589 277.5,0.5C 367.819,10.2195 435.652,54.2195 481,132.5C 497.855,164.278 508.022,197.945 511.5,233.5C 511.5,248.167 511.5,262.833 511.5,277.5C 507.525,319.427 494.191,358.094 471.5,393.5C 471.631,392.624 471.298,391.957 470.5,391.5C 436.103,411.41 399.103,423.077 359.5,426.5C 373.188,406.126 384.521,384.46 393.5,361.5C 398.402,357.388 401.569,352.055 403,345.5C 403.499,340.511 403.666,335.511 403.5,330.5C 410.461,300.264 413.461,269.597 412.5,238.5C 415.81,238.539 418.476,237.206 420.5,234.5C 424.569,238.629 429.236,239.463 434.5,237C 437.638,231.599 436.971,226.766 432.5,222.5C 436.751,218.514 437.585,213.847 435,208.5C 429.679,205.474 424.846,206.141 420.5,210.5C 417.334,206.923 413.334,205.59 408.5,206.5C 404.739,183.05 398.239,160.383 389,138.5C 362.852,77.4756 320.352,31.809 261.5,1.5 Z"/></g>
<g><path style="opacity:1" fill="#fec850" d="M 120.5,37.5 C 78.2967,111.252 72.13,188.252 102,268.5C 95.189,262.502 88.0224,262.002 80.5,267C 70.7307,277.058 71.3974,286.392 82.5,295C 97.107,299.059 105.274,293.559 107,278.5C 117.243,300.665 130.243,320.999 146,339.5C 170.008,364.18 195.841,386.68 223.5,407C 251.915,419.582 280.915,430.582 310.5,440C 321.076,442.385 331.743,443.718 342.5,444C 345.813,441.017 348.813,437.683 351.5,434C 352.094,433.536 352.761,433.369 353.5,433.5C 334.569,459.469 311.569,481.136 284.5,498.5C 276.609,502.608 268.942,506.941 261.5,511.5C 252.167,511.5 242.833,511.5 233.5,511.5C 133.195,499.018 61.6947,447.018 19,355.5C 8.70332,330.313 2.20332,304.313 -0.5,277.5C -0.5,262.833 -0.5,248.167 -0.5,233.5C 8.84193,148.777 49.1753,83.4434 120.5,37.5 Z"/></g>
<g><path style="opacity:1" fill="#ffef81" d="M 143.5,107.5 C 171.469,105.306 186.802,118.139 189.5,146C 183.85,173.501 167.184,184.501 139.5,179C 118.276,168.71 111.109,152.21 118,129.5C 123.595,118.734 132.095,111.401 143.5,107.5 Z"/></g>
<g><path style="opacity:1" fill="#ffef81" d="M 309.5,202.5 C 314.334,201.59 318.334,202.923 321.5,206.5C 326.824,201.272 331.991,201.272 337,206.5C 338.426,211.748 337.259,216.248 333.5,220C 340.062,225.757 340.062,231.423 333.5,237C 328.771,238.256 324.771,237.089 321.5,233.5C 310.981,240.895 305.814,238.228 306,225.5C 307.182,223.656 308.349,221.823 309.5,220C 304.202,214.116 304.202,208.283 309.5,202.5 Z"/></g>
<g><path style="opacity:1" fill="#6e6470" d="M 408.5,206.5 C 413.334,205.59 417.334,206.923 420.5,210.5C 424.846,206.141 429.679,205.474 435,208.5C 437.585,213.847 436.751,218.514 432.5,222.5C 436.971,226.766 437.638,231.599 434.5,237C 429.236,239.463 424.569,238.629 420.5,234.5C 418.476,237.206 415.81,238.539 412.5,238.5C 411.819,227.738 410.486,217.071 408.5,206.5 Z"/></g>
<g><path style="opacity:1" fill="#ffef81" d="M 202.5,239.5 C 207.635,238.426 211.468,240.093 214,244.5C 214.499,248.152 214.665,251.818 214.5,255.5C 219.808,254.743 224.641,255.743 229,258.5C 231.587,263.413 230.753,267.58 226.5,271C 222.605,272.266 218.605,272.766 214.5,272.5C 216.641,281.244 213.474,286.577 205,288.5C 202.497,288.01 200.497,286.677 199,284.5C 197.734,280.605 197.234,276.605 197.5,272.5C 191.348,273.592 186.182,271.925 182,267.5C 180.902,263.495 181.735,259.995 184.5,257C 188.7,255.633 193.033,255.133 197.5,255.5C 197.335,251.818 197.501,248.152 198,244.5C 199.059,242.341 200.559,240.674 202.5,239.5 Z"/></g>
<g><path style="opacity:1" fill="#ffef81" d="M 277.5,311.5 C 305.469,309.306 320.802,322.139 323.5,350C 320.564,370.437 308.897,381.937 288.5,384.5C 264.312,384.102 251.312,371.935 249.5,348C 250.799,329.549 260.132,317.382 277.5,311.5 Z"/></g>
<g><path style="opacity:1" fill="#766a6f" d="M 403.5,330.5 C 403.666,335.511 403.499,340.511 403,345.5C 401.569,352.055 398.402,357.388 393.5,361.5C 397.004,351.125 400.337,340.792 403.5,330.5 Z"/></g>
<g><path style="opacity:1" fill="#4d404e" d="M 471.5,393.5 C 425.381,462.911 360.714,502.244 277.5,511.5C 272.167,511.5 266.833,511.5 261.5,511.5C 268.942,506.941 276.609,502.608 284.5,498.5C 311.569,481.136 334.569,459.469 353.5,433.5C 355.727,431.393 357.727,429.06 359.5,426.5C 399.103,423.077 436.103,411.41 470.5,391.5C 471.298,391.957 471.631,392.624 471.5,393.5 Z"/></g>
</svg>
