<?xml version="1.0" encoding="UTF-8"?>
<!DOCTYPE svg PUBLIC "-//W3C//DTD SVG 1.1//EN" "http://www.w3.org/Graphics/SVG/1.1/DTD/svg11.dtd">
<svg xmlns="http://www.w3.org/2000/svg" version="1.1" width="512px" height="512px" style="shape-rendering:geometricPrecision; text-rendering:geometricPrecision; image-rendering:optimizeQuality; fill-rule:evenodd; clip-rule:evenodd" xmlns:xlink="http://www.w3.org/1999/xlink">
<g><path style="opacity:0.998" fill="#ffdb63" d="M 233.5,-0.5 C 240.833,-0.5 248.167,-0.5 255.5,-0.5C 255.5,137.5 255.5,275.5 255.5,413.5C 242.803,408.984 230.47,403.651 218.5,397.5C 209.839,403.923 200.506,405.09 190.5,401C 182.04,393.619 179.207,384.452 182,373.5C 149.536,347.706 124.536,316.039 107,278.5C 105.274,293.559 97.107,299.059 82.5,295C 71.3974,286.392 70.7307,277.058 80.5,267C 88.0224,262.002 95.189,262.502 102,268.5C 72.13,188.252 78.2967,111.252 120.5,37.5C 155.198,16.0452 192.864,3.37854 233.5,-0.5 Z"/></g>
<g><path style="opacity:1" fill="#5d5360" d="M 255.5,-0.5 C 262.833,-0.5 270.167,-0.5 277.5,-0.5C 377.805,11.9821 449.305,63.9821 492,155.5C 502.297,180.687 508.797,206.687 511.5,233.5C 511.5,248.167 511.5,262.833 511.5,277.5C 507.525,319.427 494.191,358.094 471.5,393.5C 471.631,392.624 471.298,391.957 470.5,391.5C 402.017,430.048 330.35,437.382 255.5,413.5C 255.5,275.5 255.5,137.5 255.5,-0.5 Z"/></g>
<g><path style="opacity:1" fill="#ffc850" d="M 120.5,37.5 C 78.2967,111.252 72.13,188.252 102,268.5C 95.189,262.502 88.0224,262.002 80.5,267C 70.7307,277.058 71.3974,286.392 82.5,295C 97.107,299.059 105.274,293.559 107,278.5C 124.536,316.039 149.536,347.706 182,373.5C 179.207,384.452 182.04,393.619 190.5,401C 200.506,405.09 209.839,403.923 218.5,397.5C 230.47,403.651 242.803,408.984 255.5,413.5C 255.5,446.167 255.5,478.833 255.5,511.5C 248.167,511.5 240.833,511.5 233.5,511.5C 133.195,499.018 61.6947,447.018 19,355.5C 8.70332,330.313 2.20332,304.313 -0.5,277.5C -0.5,262.833 -0.5,248.167 -0.5,233.5C 8.84193,148.777 49.1753,83.4434 120.5,37.5 Z"/></g>
<g><path style="opacity:1" fill="#ffef81" d="M 143.5,107.5 C 171.469,105.306 186.802,118.139 189.5,146C 183.85,173.501 167.184,184.501 139.5,179C 118.276,168.71 111.109,152.21 118,129.5C 123.595,118.734 132.095,111.401 143.5,107.5 Z"/></g>
<g><path style="opacity:1" fill="#6e6470" d="M 300.5,123.5 C 315.325,122.824 322.158,129.824 321,144.5C 314.371,157.571 305.037,159.905 293,151.5C 285.28,139.306 287.78,129.973 300.5,123.5 Z"/></g>
<g><path style="opacity:1" fill="#6e6470" d="M 408.5,206.5 C 413.334,205.59 417.334,206.923 420.5,210.5C 424.846,206.141 429.679,205.474 435,208.5C 437.585,213.847 436.751,218.514 432.5,222.5C 438.103,226.724 438.77,231.557 434.5,237C 429.236,239.463 424.569,238.629 420.5,234.5C 415.296,239.799 410.13,239.799 405,234.5C 403.744,229.771 404.911,225.771 408.5,222.5C 403.236,217.057 403.236,211.724 408.5,206.5 Z"/></g>
<g><path style="opacity:1" fill="#ffef81" d="M 202.5,239.5 C 207.635,238.426 211.468,240.093 214,244.5C 214.499,248.152 214.665,251.818 214.5,255.5C 219.808,254.743 224.641,255.743 229,258.5C 231.587,263.413 230.753,267.58 226.5,271C 222.605,272.266 218.605,272.766 214.5,272.5C 216.641,281.244 213.474,286.577 205,288.5C 202.497,288.01 200.497,286.677 199,284.5C 197.734,280.605 197.234,276.605 197.5,272.5C 191.348,273.592 186.182,271.925 182,267.5C 180.902,263.495 181.735,259.995 184.5,257C 188.7,255.633 193.033,255.133 197.5,255.5C 197.335,251.818 197.501,248.152 198,244.5C 199.059,242.341 200.559,240.674 202.5,239.5 Z"/></g>
<g><path style="opacity:1" fill="#6e6470" d="M 362.5,305.5 C 382.46,302.887 395.96,310.887 403,329.5C 406.174,350.002 398.007,363.502 378.5,370C 358.397,372.871 345.23,364.704 339,345.5C 336.324,325.836 344.157,312.503 362.5,305.5 Z"/></g>
<g><path style="opacity:1" fill="#4c3f4e" d="M 471.5,393.5 C 425.381,462.911 360.714,502.244 277.5,511.5C 270.167,511.5 262.833,511.5 255.5,511.5C 255.5,478.833 255.5,446.167 255.5,413.5C 330.35,437.382 402.017,430.048 470.5,391.5C 471.298,391.957 471.631,392.624 471.5,393.5 Z"/></g>
</svg>
